<svg width="18" height="12" viewBox="0 0 18 12" fill="none" xmlns="http://www.w3.org/2000/svg">
<path d="M17.7588 1.34668C17.7529 1.59544 17.658 1.83422 17.4912 2.02051L17.4893 2.02344L9.81836 10.9102C9.71876 11.0259 9.59467 11.1187 9.45508 11.1826C9.31539 11.2465 9.16277 11.2803 9.00879 11.2803C8.85493 11.2802 8.70306 11.2465 8.56348 11.1826C8.42389 11.1187 8.29988 11.026 8.20019 10.9102L0.537109 2.02344L0.525391 2.01172C0.42214 1.90908 0.341248 1.78617 0.288086 1.65137C0.235022 1.5167 0.211176 1.3721 0.216797 1.22754C0.22247 1.08322 0.257958 0.941681 0.321289 0.811523C0.384833 0.681048 0.475004 0.564165 0.585937 0.469726C0.696756 0.375467 0.826009 0.304313 0.96582 0.261718C1.10589 0.219093 1.25381 0.206128 1.39941 0.222656C1.54502 0.239188 1.68588 0.28556 1.8125 0.358398C1.93895 0.431206 2.04928 0.528795 2.13574 0.645507L2.13965 0.652343L2.14551 0.658202L8.84473 8.41992L9.00781 8.6084L9.1709 8.41992L15.873 0.658203L15.876 0.655273L15.9893 0.537109C16.1119 0.428977 16.2597 0.350374 16.4199 0.307617C16.6334 0.250723 16.8592 0.261561 17.0664 0.337891C17.2737 0.414321 17.4523 0.552429 17.5762 0.733398C17.6998 0.91414 17.7635 1.12857 17.7588 1.34668Z" fill="white" stroke="#7E7E7E" stroke-width="0.431387"/>
</svg>
