<svg width="24" height="24" viewBox="0 0 24 24" fill="none" xmlns="http://www.w3.org/2000/svg">
<path d="M20.4794 3.50872C15.8008 -1.16994 8.18751 -1.16994 3.50886 3.50872C-1.16979 8.18737 -1.16979 15.8006 3.50886 20.4793C8.18751 25.1579 15.8008 25.1579 20.4794 20.4793C25.1581 15.8006 25.1581 8.18737 20.4794 3.50872ZM19.174 4.81415C23.1471 8.78722 23.1471 15.2008 19.174 19.1739C15.2009 23.1469 8.78736 23.1469 4.81429 19.1739C0.841217 15.2008 0.841218 8.78722 4.81429 4.81415C8.78736 0.841077 15.2009 0.841077 19.174 4.81415ZM15.2577 7.425L11.9941 10.6886L8.73057 7.425L7.42514 8.73043L10.6887 11.994L7.42514 15.2576L8.73057 16.563L11.9941 13.2994L15.2577 16.563L16.5631 15.2576L13.2996 11.994L16.5631 8.73043L15.2577 7.425Z" fill="white"/>
</svg>
