<svg width="24" height="36" viewBox="0 0 24 36" fill="none" xmlns="http://www.w3.org/2000/svg">
<path d="M20.4697 35.5107C19.9728 35.499 19.4963 35.3121 19.125 34.9824L19.1182 34.9766L1.19531 19.627C0.964276 19.4298 0.7786 19.184 0.651369 18.9082C0.524223 18.6325 0.458009 18.332 0.458009 18.0283C0.458074 17.7248 0.524308 17.425 0.651369 17.1494C0.778537 16.8737 0.964161 16.6289 1.19531 16.4316L1.19531 16.4307L19.1182 1.0957L19.1318 1.08496L19.1445 1.07227C19.3491 0.868129 19.5932 0.707872 19.8623 0.602539C20.1314 0.497243 20.4199 0.448806 20.709 0.459961C20.9979 0.471111 21.2817 0.542192 21.542 0.667969C21.8022 0.793752 22.0336 0.971392 22.2217 1.19043C22.4098 1.40971 22.5509 1.66608 22.6357 1.94238C22.7205 2.21882 22.7477 2.51059 22.7148 2.79785C22.6819 3.08494 22.5902 3.36235 22.4453 3.6123C22.3003 3.86232 22.1051 4.07971 21.8721 4.25098L21.8584 4.26074L21.8447 4.27246L6.19043 17.6787L5.78418 18.0264L6.19043 18.374L21.8447 31.7852L21.8516 31.791L21.9736 31.8994C22.2471 32.163 22.4447 32.4966 22.5439 32.8652C22.6573 33.2868 22.6364 33.7334 22.4844 34.1426C22.3323 34.5518 22.0563 34.9033 21.6953 35.1484C21.3794 35.3629 21.0121 35.4866 20.6328 35.5078L20.4697 35.5107Z" fill="white" stroke="#50458F" stroke-width="0.916397"/>
</svg>
