<svg width="232" height="64" viewBox="0 0 232 64" fill="none" xmlns="http://www.w3.org/2000/svg">
<path d="M82.9356 64V36.9577H103.598C104.578 36.9577 105.47 37.2081 106.275 37.7089C107.104 38.1847 107.77 38.8357 108.273 39.662C108.776 40.4632 109.027 41.3646 109.027 42.3662V47.5493C109.027 47.8748 109.002 48.1878 108.952 48.4883C108.901 48.7637 108.826 49.0391 108.725 49.3146C109.128 49.8404 109.454 50.4163 109.706 51.0423C109.957 51.6432 110.083 52.2567 110.083 52.8826V58.5915C110.083 59.5931 109.831 60.507 109.329 61.3333C108.826 62.1346 108.16 62.7856 107.33 63.2864C106.526 63.7621 105.621 64 104.616 64H82.9356ZM88.5912 58.554H104.352C104.427 58.554 104.477 58.5415 104.502 58.5164C104.553 58.4664 104.578 58.4038 104.578 58.3286V53.1831C104.578 53.133 104.553 53.0829 104.502 53.0329C104.477 52.9828 104.427 52.9577 104.352 52.9577H88.5912C88.5158 52.9577 88.453 52.9828 88.4027 53.0329C88.3776 53.0829 88.365 53.133 88.365 53.1831V58.3286C88.365 58.4038 88.3776 58.4664 88.4027 58.5164C88.453 58.5415 88.5158 58.554 88.5912 58.554ZM88.5912 47.5117H103.296C103.346 47.5117 103.397 47.4992 103.447 47.4742C103.497 47.4241 103.522 47.374 103.522 47.3239V42.6291C103.522 42.554 103.497 42.5039 103.447 42.4789C103.397 42.4288 103.346 42.4038 103.296 42.4038H88.5912C88.5158 42.4038 88.453 42.4288 88.4027 42.4789C88.3776 42.5039 88.365 42.554 88.365 42.6291V47.3239C88.365 47.374 88.3776 47.4241 88.4027 47.4742C88.453 47.4992 88.5158 47.5117 88.5912 47.5117Z" fill="url(#paint0_linear_3864_728)"/>
<path d="M134.667 64L126.636 54.4601H133.762L140.398 62.3099V64H134.667ZM113.327 64V36.9953H135.007C136.012 36.9953 136.917 37.2457 137.721 37.7465C138.551 38.2222 139.217 38.8732 139.72 39.6995C140.222 40.5258 140.474 41.4272 140.474 42.4038V49.5399C140.474 50.5164 140.222 51.4178 139.72 52.2441C139.217 53.0454 138.551 53.6964 137.721 54.1972C136.917 54.6729 136.012 54.9108 135.007 54.9108L118.756 54.9484V64H113.327ZM118.982 49.4648H134.743C134.818 49.4648 134.868 49.4523 134.893 49.4272C134.944 49.3771 134.969 49.3271 134.969 49.277V42.6291C134.969 42.554 134.944 42.5039 134.893 42.4789C134.868 42.4288 134.818 42.4038 134.743 42.4038H118.982C118.907 42.4038 118.844 42.4288 118.794 42.4789C118.769 42.5039 118.756 42.554 118.756 42.6291V49.277C118.756 49.3271 118.769 49.3771 118.794 49.4272C118.844 49.4523 118.907 49.4648 118.982 49.4648Z" fill="url(#paint1_linear_3864_728)"/>
<path d="M148.927 64C147.921 64 147.004 63.7621 146.174 63.2864C145.37 62.7856 144.717 62.1346 144.214 61.3333C143.736 60.507 143.497 59.5931 143.497 58.5915V36.9577H148.927V58.3286C148.927 58.4038 148.939 58.4664 148.965 58.5164C149.015 58.5415 149.078 58.554 149.153 58.554H164.914C164.989 58.554 165.039 58.5415 165.064 58.5164C165.115 58.4664 165.14 58.4038 165.14 58.3286V36.9577H170.645V58.5915C170.645 59.5931 170.393 60.507 169.891 61.3333C169.388 62.1346 168.722 62.7856 167.892 63.2864C167.088 63.7621 166.195 64 165.215 64H148.927Z" fill="url(#paint2_linear_3864_728)"/>
<path d="M179.246 64C178.266 64 177.361 63.7621 176.531 63.2864C175.702 62.7856 175.048 62.1346 174.571 61.3333C174.093 60.507 173.854 59.5931 173.854 58.5915V56.3005H179.284V58.3286C179.284 58.4038 179.296 58.4664 179.321 58.5164C179.372 58.5415 179.422 58.554 179.472 58.554H195.27C195.321 58.554 195.371 58.5415 195.421 58.5164C195.471 58.4664 195.497 58.4038 195.497 58.3286V53.4084C195.497 53.3584 195.471 53.3208 195.421 53.2958C195.371 53.2457 195.321 53.2207 195.27 53.2207H179.246C178.266 53.2207 177.361 52.9828 176.531 52.507C175.702 52.0063 175.048 51.3427 174.571 50.5164C174.093 49.6901 173.854 48.7887 173.854 47.8122V42.3662C173.854 41.3646 174.093 40.4632 174.571 39.662C175.048 38.8357 175.702 38.1847 176.531 37.7089C177.361 37.2081 178.266 36.9577 179.246 36.9577H195.572C196.552 36.9577 197.445 37.2081 198.249 37.7089C199.078 38.1847 199.745 38.8357 200.247 39.662C200.75 40.4632 201.001 41.3646 201.001 42.3662V44.6573H195.497V42.6291C195.497 42.554 195.471 42.5039 195.421 42.4789C195.371 42.4288 195.321 42.4038 195.27 42.4038H179.472C179.422 42.4038 179.372 42.4288 179.321 42.4789C179.296 42.5039 179.284 42.554 179.284 42.6291V47.5493C179.284 47.5994 179.296 47.6495 179.321 47.6995C179.372 47.7246 179.422 47.7371 179.472 47.7371H195.572C196.552 47.7371 197.445 47.9875 198.249 48.4883C199.078 48.964 199.745 49.615 200.247 50.4413C200.75 51.2676 201.001 52.169 201.001 53.1455V58.5915C201.001 59.5931 200.75 60.507 200.247 61.3333C199.745 62.1346 199.078 62.7856 198.249 63.2864C197.445 63.7621 196.552 64 195.572 64H179.246Z" fill="url(#paint3_linear_3864_728)"/>
<path d="M204.287 64V36.9577H209.717V47.7371H226.571V36.9577H232V64H226.571V53.2207H209.717V64H204.287Z" fill="url(#paint4_linear_3864_728)"/>
<path d="M82.9356 27.0423V0.0375061H102.318C103.217 0.0375061 104.026 0.28755 104.745 0.787637C105.487 1.26272 106.082 1.91284 106.532 2.73798C106.981 3.53812 107.206 4.43828 107.206 5.43845V21.6413C107.206 22.6415 106.981 23.5541 106.532 24.3793C106.082 25.1794 105.487 25.8295 104.745 26.3296C104.026 26.8047 103.217 27.0423 102.318 27.0423H82.9356ZM87.9582 21.6038H102.082C102.15 21.6038 102.195 21.5913 102.217 21.5663C102.262 21.5163 102.284 21.4538 102.284 21.3788V5.701C102.284 5.62599 102.262 5.57598 102.217 5.55098C102.195 5.50097 102.15 5.47596 102.082 5.47596H87.9582C87.9132 5.47596 87.8683 5.50097 87.8233 5.55098C87.7784 5.57598 87.7559 5.62599 87.7559 5.701V21.3788C87.7559 21.4538 87.7784 21.5163 87.8233 21.5663C87.8683 21.5913 87.9132 21.6038 87.9582 21.6038Z" fill="url(#paint5_linear_3864_728)"/>
<path d="M110.307 27.0423V0.0375061H115.127V27.0423H110.307Z" fill="url(#paint6_linear_3864_728)"/>
<path d="M123.044 27.0423C122.145 27.0423 121.325 26.8047 120.583 26.3296C119.864 25.8295 119.28 25.1794 118.83 24.3793C118.403 23.5541 118.19 22.6415 118.19 21.6413V5.43845C118.19 4.43828 118.403 3.53812 118.83 2.73798C119.28 1.91284 119.864 1.26272 120.583 0.787637C121.325 0.28755 122.145 0.0375061 123.044 0.0375061H137.572C138.471 0.0375061 139.28 0.28755 140 0.787637C140.741 1.26272 141.337 1.91284 141.786 2.73798C142.236 3.53812 142.46 4.43828 142.46 5.43845V7.76386H137.539V5.701C137.539 5.62599 137.516 5.57598 137.471 5.55098C137.449 5.50097 137.404 5.47596 137.337 5.47596H123.246C123.179 5.47596 123.123 5.50097 123.078 5.55098C123.055 5.57598 123.044 5.62599 123.044 5.701V21.3788C123.044 21.4538 123.055 21.5163 123.078 21.5663C123.123 21.5913 123.179 21.6038 123.246 21.6038H137.337C137.404 21.6038 137.449 21.5913 137.471 21.5663C137.516 21.5163 137.539 21.4538 137.539 21.3788V16.953H132.179V11.5145H142.46V21.6413C142.46 22.6415 142.236 23.5541 141.786 24.3793C141.337 25.1794 140.741 25.8295 140 26.3296C139.28 26.8047 138.471 27.0423 137.572 27.0423H123.044Z" fill="url(#paint7_linear_3864_728)"/>
<path d="M145.497 27.0423V0.0375061H150.317V27.0423H145.497Z" fill="url(#paint8_linear_3864_728)"/>
<path d="M162.434 27.0423V5.47596H152.726V0.0375061H176.996V5.47596H167.322V27.0423H162.434Z" fill="url(#paint9_linear_3864_728)"/>
<path d="M179.585 27.0423V5.43845C179.585 4.43828 179.798 3.53812 180.225 2.73798C180.675 1.91284 181.259 1.26272 181.978 0.787637C182.72 0.28755 183.54 0.0375061 184.439 0.0375061H198.968C199.866 0.0375061 200.675 0.28755 201.395 0.787637C202.136 1.26272 202.732 1.91284 203.181 2.73798C203.631 3.53812 203.855 4.43828 203.855 5.43845V27.0423H198.934V18.1532H184.439V27.0423H179.585ZM184.439 12.7522H198.934V5.701C198.934 5.62599 198.911 5.57598 198.866 5.55098C198.844 5.50097 198.799 5.47596 198.732 5.47596H184.641C184.574 5.47596 184.518 5.50097 184.473 5.55098C184.45 5.57598 184.439 5.62599 184.439 5.701V12.7522Z" fill="url(#paint10_linear_3864_728)"/>
<path d="M207.73 27.0423V0H212.584V21.6038H232V27.0423H207.73Z" fill="url(#paint11_linear_3864_728)"/>
<path d="M33.7545 43.8633C30.893 59.6006 12.0771 54.1754 5.08721 49.2676C30.0133 76.6197 52.9463 46.8732 43.0156 30.9735C54.9231 41.1584 46.1873 54.5605 39.0453 60.9861C69.9178 47.4683 54.4821 15.919 33.7545 19.0739C46.5438 11.8627 54.0209 19.5102 60.4111 30.9735C58.4516 -6.6156 19.201 6.90493 19.6416 23.1303C15.2321 10.5119 28.4623 1.49317 39.0453 1.49317C5.0885 -7.96702 0.238987 33.501 19.201 38.905C4.26349 39.5794 3.56173 21.805 5.08761 12.7656C-13.0825 41.5638 22.3898 62.1454 33.7545 43.8633Z" fill="#5454FE"/>
<defs>
<linearGradient id="paint0_linear_3864_728" x1="0" y1="32" x2="232" y2="32" gradientUnits="userSpaceOnUse">
<stop stop-color="#2090FF"/>
<stop offset="0.229835" stop-color="#5454FE"/>
<stop offset="0.44536" stop-color="#853FF6"/>
<stop offset="0.692684" stop-color="#FD4CCC"/>
<stop offset="1" stop-color="#F75252"/>
</linearGradient>
<linearGradient id="paint1_linear_3864_728" x1="0" y1="32" x2="232" y2="32" gradientUnits="userSpaceOnUse">
<stop stop-color="#2090FF"/>
<stop offset="0.229835" stop-color="#5454FE"/>
<stop offset="0.44536" stop-color="#853FF6"/>
<stop offset="0.692684" stop-color="#FD4CCC"/>
<stop offset="1" stop-color="#F75252"/>
</linearGradient>
<linearGradient id="paint2_linear_3864_728" x1="0" y1="32" x2="232" y2="32" gradientUnits="userSpaceOnUse">
<stop stop-color="#2090FF"/>
<stop offset="0.229835" stop-color="#5454FE"/>
<stop offset="0.44536" stop-color="#853FF6"/>
<stop offset="0.692684" stop-color="#FD4CCC"/>
<stop offset="1" stop-color="#F75252"/>
</linearGradient>
<linearGradient id="paint3_linear_3864_728" x1="0" y1="32" x2="232" y2="32" gradientUnits="userSpaceOnUse">
<stop stop-color="#2090FF"/>
<stop offset="0.229835" stop-color="#5454FE"/>
<stop offset="0.44536" stop-color="#853FF6"/>
<stop offset="0.692684" stop-color="#FD4CCC"/>
<stop offset="1" stop-color="#F75252"/>
</linearGradient>
<linearGradient id="paint4_linear_3864_728" x1="0" y1="32" x2="232" y2="32" gradientUnits="userSpaceOnUse">
<stop stop-color="#2090FF"/>
<stop offset="0.229835" stop-color="#5454FE"/>
<stop offset="0.44536" stop-color="#853FF6"/>
<stop offset="0.692684" stop-color="#FD4CCC"/>
<stop offset="1" stop-color="#F75252"/>
</linearGradient>
<linearGradient id="paint5_linear_3864_728" x1="0" y1="32" x2="232" y2="32" gradientUnits="userSpaceOnUse">
<stop stop-color="#2090FF"/>
<stop offset="0.229835" stop-color="#5454FE"/>
<stop offset="0.44536" stop-color="#853FF6"/>
<stop offset="0.692684" stop-color="#FD4CCC"/>
<stop offset="1" stop-color="#F75252"/>
</linearGradient>
<linearGradient id="paint6_linear_3864_728" x1="0" y1="32" x2="232" y2="32" gradientUnits="userSpaceOnUse">
<stop stop-color="#2090FF"/>
<stop offset="0.229835" stop-color="#5454FE"/>
<stop offset="0.44536" stop-color="#853FF6"/>
<stop offset="0.692684" stop-color="#FD4CCC"/>
<stop offset="1" stop-color="#F75252"/>
</linearGradient>
<linearGradient id="paint7_linear_3864_728" x1="0" y1="32" x2="232" y2="32" gradientUnits="userSpaceOnUse">
<stop stop-color="#2090FF"/>
<stop offset="0.229835" stop-color="#5454FE"/>
<stop offset="0.44536" stop-color="#853FF6"/>
<stop offset="0.692684" stop-color="#FD4CCC"/>
<stop offset="1" stop-color="#F75252"/>
</linearGradient>
<linearGradient id="paint8_linear_3864_728" x1="0" y1="32" x2="232" y2="32" gradientUnits="userSpaceOnUse">
<stop stop-color="#2090FF"/>
<stop offset="0.229835" stop-color="#5454FE"/>
<stop offset="0.44536" stop-color="#853FF6"/>
<stop offset="0.692684" stop-color="#FD4CCC"/>
<stop offset="1" stop-color="#F75252"/>
</linearGradient>
<linearGradient id="paint9_linear_3864_728" x1="0" y1="32" x2="232" y2="32" gradientUnits="userSpaceOnUse">
<stop stop-color="#2090FF"/>
<stop offset="0.229835" stop-color="#5454FE"/>
<stop offset="0.44536" stop-color="#853FF6"/>
<stop offset="0.692684" stop-color="#FD4CCC"/>
<stop offset="1" stop-color="#F75252"/>
</linearGradient>
<linearGradient id="paint10_linear_3864_728" x1="0" y1="32" x2="232" y2="32" gradientUnits="userSpaceOnUse">
<stop stop-color="#2090FF"/>
<stop offset="0.229835" stop-color="#5454FE"/>
<stop offset="0.44536" stop-color="#853FF6"/>
<stop offset="0.692684" stop-color="#FD4CCC"/>
<stop offset="1" stop-color="#F75252"/>
</linearGradient>
<linearGradient id="paint11_linear_3864_728" x1="0" y1="32" x2="232" y2="32" gradientUnits="userSpaceOnUse">
<stop stop-color="#2090FF"/>
<stop offset="0.229835" stop-color="#5454FE"/>
<stop offset="0.44536" stop-color="#853FF6"/>
<stop offset="0.692684" stop-color="#FD4CCC"/>
<stop offset="1" stop-color="#F75252"/>
</linearGradient>
</defs>
</svg>
