<svg width="274" height="270" viewBox="0 0 274 270" fill="none" xmlns="http://www.w3.org/2000/svg">
<path d="M153.075 193.903C140.098 263.623 54.7693 239.588 23.0703 217.845C136.109 339.022 240.109 207.237 195.074 136.798C249.074 181.919 209.457 241.294 177.069 269.761C317.074 209.874 247.074 70.1021 153.075 84.0792C211.074 52.1314 244.982 86.012 273.962 136.797C265.075 -29.7322 87.0755 30.1673 89.0738 102.05C69.077 46.147 129.075 6.19177 177.069 6.19177C23.0762 -35.7193 1.08387 147.995 87.0755 171.936C19.3348 174.924 16.1523 96.1785 23.0721 56.1315C-59.3287 183.715 101.537 274.897 153.075 193.903Z" fill="white"/>
</svg>
