<svg width="252" height="84" viewBox="0 0 252 84" fill="none" xmlns="http://www.w3.org/2000/svg">
<path d="M45.0291 54.7545C42.0009 71.0505 22.0892 65.4327 14.6922 60.3508C41.07 88.6738 65.3386 57.8714 54.8295 41.4072C67.4305 51.9537 58.186 65.8315 50.628 72.4853C83.2985 58.4876 66.9638 25.8183 45.0291 29.0852C58.5632 21.6179 66.4758 29.537 73.2382 41.4072C71.1645 2.48369 29.6279 16.4842 30.0942 33.2856C25.4279 20.2192 39.4287 10.8803 50.628 10.8803C14.6935 1.08429 9.5616 44.0244 29.6279 49.6202C13.8205 50.3186 13.0779 31.9132 14.6926 22.5529C-4.53579 52.3734 33.0025 73.6857 45.0291 54.7545Z" fill="white"/>
<path d="M100.409 72.2477V45.4648H121.322C122.315 45.4648 123.218 45.7128 124.032 46.2088C124.872 46.68 125.546 47.3248 126.055 48.1431C126.563 48.9367 126.818 49.8295 126.818 50.8214V55.9548C126.818 56.2772 126.792 56.5872 126.742 56.8848C126.691 57.1576 126.614 57.4303 126.513 57.7031C126.92 58.2239 127.25 58.7943 127.505 59.4143C127.759 60.0094 127.886 60.617 127.886 61.237V66.8911C127.886 67.8831 127.632 68.7883 127.123 69.6066C126.614 70.4002 125.94 71.045 125.101 71.5409C124.286 72.0121 123.37 72.2477 122.353 72.2477H100.409ZM106.134 66.8539H122.086C122.162 66.8539 122.213 66.8415 122.238 66.8167C122.289 66.7671 122.315 66.7051 122.315 66.6308V61.5346C122.315 61.485 122.289 61.4354 122.238 61.3858C122.213 61.3362 122.162 61.3114 122.086 61.3114H106.134C106.057 61.3114 105.994 61.3362 105.943 61.3858C105.917 61.4354 105.905 61.485 105.905 61.5346V66.6308C105.905 66.7051 105.917 66.7671 105.943 66.8167C105.994 66.8415 106.057 66.8539 106.134 66.8539ZM106.134 55.9176H121.017C121.068 55.9176 121.119 55.9052 121.17 55.8804C121.221 55.8308 121.246 55.7812 121.246 55.7316V51.0818C121.246 51.0074 121.221 50.9578 121.17 50.933C121.119 50.8834 121.068 50.8586 121.017 50.8586H106.134C106.057 50.8586 105.994 50.8834 105.943 50.933C105.917 50.9578 105.905 51.0074 105.905 51.0818V55.7316C105.905 55.7812 105.917 55.8308 105.943 55.8804C105.994 55.9052 106.057 55.9176 106.134 55.9176Z" fill="white"/>
<path d="M152.77 72.2477L144.641 62.7993H151.854L158.571 70.5738V72.2477H152.77ZM131.17 72.2477V45.502H153.113C154.131 45.502 155.047 45.75 155.861 46.246C156.701 46.7172 157.375 47.362 157.884 48.1803C158.392 48.9987 158.647 49.8915 158.647 50.8586V57.9263C158.647 58.8935 158.392 59.7862 157.884 60.6046C157.375 61.3982 156.701 62.0429 155.861 62.5389C155.047 63.0101 154.131 63.2457 153.113 63.2457L136.665 63.2829V72.2477H131.17ZM136.894 57.8519H152.846C152.922 57.8519 152.973 57.8395 152.999 57.8147C153.05 57.7651 153.075 57.7155 153.075 57.6659V51.0818C153.075 51.0074 153.05 50.9578 152.999 50.933C152.973 50.8834 152.922 50.8586 152.846 50.8586H136.894C136.818 50.8586 136.754 50.8834 136.703 50.933C136.678 50.9578 136.665 51.0074 136.665 51.0818V57.6659C136.665 57.7155 136.678 57.7651 136.703 57.8147C136.754 57.8395 136.818 57.8519 136.894 57.8519Z" fill="white"/>
<path d="M167.203 72.2477C166.185 72.2477 165.257 72.0121 164.417 71.5409C163.603 71.045 162.941 70.4002 162.432 69.6066C161.949 68.7883 161.707 67.8831 161.707 66.8911V45.4648H167.203V66.6308C167.203 66.7051 167.216 66.7671 167.241 66.8167C167.292 66.8415 167.355 66.8539 167.432 66.8539H183.384C183.46 66.8539 183.511 66.8415 183.537 66.8167C183.587 66.7671 183.613 66.7051 183.613 66.6308V45.4648H189.185V66.8911C189.185 67.8831 188.93 68.7883 188.421 69.6066C187.913 70.4002 187.238 71.045 186.399 71.5409C185.585 72.0121 184.681 72.2477 183.689 72.2477H167.203Z" fill="white"/>
<path d="M197.891 72.2477C196.898 72.2477 195.982 72.0121 195.143 71.5409C194.303 71.045 193.642 70.4002 193.158 69.6066C192.675 68.7883 192.433 67.8831 192.433 66.8911V64.622H197.929V66.6308C197.929 66.7051 197.941 66.7671 197.967 66.8167C198.018 66.8415 198.069 66.8539 198.12 66.8539H214.11C214.161 66.8539 214.212 66.8415 214.262 66.8167C214.313 66.7671 214.339 66.7051 214.339 66.6308V61.7578C214.339 61.7082 214.313 61.671 214.262 61.6462C214.212 61.5966 214.161 61.5718 214.11 61.5718H197.891C196.898 61.5718 195.982 61.3362 195.143 60.865C194.303 60.369 193.642 59.7118 193.158 58.8935C192.675 58.0751 192.433 57.1824 192.433 56.2152V50.8214C192.433 49.8295 192.675 48.9367 193.158 48.1431C193.642 47.3248 194.303 46.68 195.143 46.2088C195.982 45.7128 196.898 45.4648 197.891 45.4648H214.415C215.407 45.4648 216.31 45.7128 217.125 46.2088C217.964 46.68 218.638 47.3248 219.147 48.1431C219.656 48.9367 219.911 49.8295 219.911 50.8214V53.0905H214.339V51.0818C214.339 51.0074 214.313 50.9578 214.262 50.933C214.212 50.8834 214.161 50.8586 214.11 50.8586H198.12C198.069 50.8586 198.018 50.8834 197.967 50.933C197.941 50.9578 197.929 51.0074 197.929 51.0818V55.9548C197.929 56.0044 197.941 56.054 197.967 56.1036C198.018 56.1284 198.069 56.1408 198.12 56.1408H214.415C215.407 56.1408 216.31 56.3888 217.125 56.8848C217.964 57.3559 218.638 58.0007 219.147 58.8191C219.656 59.6374 219.911 60.5302 219.911 61.4974V66.8911C219.911 67.8831 219.656 68.7883 219.147 69.6066C218.638 70.4002 217.964 71.045 217.125 71.5409C216.31 72.0121 215.407 72.2477 214.415 72.2477H197.891Z" fill="white"/>
<path d="M223.236 72.2477V45.4648H228.732V56.1408H245.791V45.4648H251.286V72.2477H245.791V61.5718H228.732V72.2477H223.236Z" fill="white"/>
<path d="M100.409 35.6442V8.89847H120.027C120.937 8.89847 121.756 9.14612 122.484 9.64141C123.235 10.1119 123.837 10.7558 124.292 11.573C124.747 12.3655 124.975 13.257 124.975 14.2476V30.2951C124.975 31.2856 124.747 32.1895 124.292 33.0068C123.837 33.7992 123.235 34.4431 122.484 34.9384C121.756 35.4089 120.937 35.6442 120.027 35.6442H100.409ZM105.493 30.2579H119.789C119.857 30.2579 119.902 30.2455 119.925 30.2208C119.971 30.1712 119.993 30.1093 119.993 30.035V14.5076C119.993 14.4334 119.971 14.3838 119.925 14.3591C119.902 14.3095 119.857 14.2848 119.789 14.2848H105.493C105.447 14.2848 105.402 14.3095 105.356 14.3591C105.311 14.3838 105.288 14.4334 105.288 14.5076V30.035C105.288 30.1093 105.311 30.1712 105.356 30.2208C105.402 30.2455 105.447 30.2579 105.493 30.2579Z" fill="white"/>
<path d="M128.113 35.6442V8.89847H132.992V35.6442H128.113Z" fill="white"/>
<path d="M141.005 35.6442C140.095 35.6442 139.265 35.4089 138.515 34.9384C137.787 34.4431 137.195 33.7992 136.74 33.0068C136.308 32.1895 136.092 31.2856 136.092 30.2951V14.2476C136.092 13.257 136.308 12.3655 136.74 11.573C137.195 10.7558 137.787 10.1119 138.515 9.64141C139.265 9.14612 140.095 8.89847 141.005 8.89847H155.71C156.62 8.89847 157.439 9.14612 158.167 9.64141C158.918 10.1119 159.52 10.7558 159.975 11.573C160.43 12.3655 160.658 13.257 160.658 14.2476V16.5507H155.676V14.5076C155.676 14.4334 155.654 14.3838 155.608 14.3591C155.585 14.3095 155.54 14.2848 155.472 14.2848H141.21C141.142 14.2848 141.085 14.3095 141.039 14.3591C141.017 14.3838 141.005 14.4334 141.005 14.5076V30.035C141.005 30.1093 141.017 30.1712 141.039 30.2208C141.085 30.2455 141.142 30.2579 141.21 30.2579H155.472C155.54 30.2579 155.585 30.2455 155.608 30.2208C155.654 30.1712 155.676 30.1093 155.676 30.035V25.6517H150.251V20.2654H160.658V30.2951C160.658 31.2856 160.43 32.1895 159.975 33.0068C159.52 33.7992 158.918 34.4431 158.167 34.9384C157.439 35.4089 156.62 35.6442 155.71 35.6442H141.005Z" fill="white"/>
<path d="M163.731 35.6442V8.89847H168.61V35.6442H163.731Z" fill="white"/>
<path d="M180.875 35.6442V14.2848H171.048V8.89847H195.614V14.2848H185.822V35.6442H180.875Z" fill="white"/>
<path d="M198.234 35.6442V14.2476C198.234 13.257 198.45 12.3655 198.882 11.573C199.337 10.7558 199.928 10.1119 200.656 9.64141C201.407 9.14612 202.237 8.89847 203.147 8.89847H217.852C218.762 8.89847 219.581 9.14612 220.308 9.64141C221.059 10.1119 221.662 10.7558 222.117 11.573C222.572 12.3655 222.799 13.257 222.799 14.2476V35.6442H217.818V26.8404H203.147V35.6442H198.234ZM203.147 21.4913H217.818V14.5076C217.818 14.4334 217.795 14.3838 217.75 14.3591C217.727 14.3095 217.681 14.2848 217.613 14.2848H203.351C203.283 14.2848 203.226 14.3095 203.181 14.3591C203.158 14.3838 203.147 14.4334 203.147 14.5076V21.4913Z" fill="white"/>
<path d="M226.721 35.6442V8.86133H231.634V30.2579H251.286V35.6442H226.721Z" fill="white"/>
</svg>
