<svg width="24" height="36" viewBox="0 0 24 36" fill="none" xmlns="http://www.w3.org/2000/svg">
<path d="M2.7168 0.458984C3.21374 0.470776 3.69018 0.657595 4.06152 0.987305L4.06836 0.993164L21.9912 16.3428C22.2222 16.5399 22.4079 16.7857 22.5352 17.0615C22.6623 17.3373 22.7285 17.6377 22.7285 17.9414C22.7285 18.2449 22.6622 18.5447 22.5352 18.8203C22.408 19.096 22.2224 19.3408 21.9912 19.5381V19.5391L4.06836 34.874L4.05469 34.8848L4.04199 34.8975C3.83745 35.1016 3.59332 35.2619 3.32422 35.3672C3.05512 35.4725 2.76664 35.5209 2.47754 35.5098C2.18858 35.4986 1.90484 35.4275 1.64453 35.3018C1.38431 35.176 1.15289 34.9983 0.964844 34.7793C0.776683 34.56 0.635599 34.3036 0.550781 34.0273C0.465989 33.7509 0.438815 33.4591 0.47168 33.1719C0.504589 32.8848 0.596303 32.6074 0.741211 32.3574C0.886177 32.1074 1.08148 31.89 1.31445 31.7188L1.32813 31.709L1.3418 31.6973L16.9961 18.291L17.4023 17.9434L16.9961 17.5957L1.3418 4.18457L1.33496 4.17871L1.21289 4.07031C0.939462 3.80669 0.741807 3.47314 0.642578 3.10449C0.52919 2.68297 0.550125 2.23633 0.702148 1.82715C0.854198 1.41792 1.13018 1.06647 1.49121 0.821289C1.80708 0.606795 2.17441 0.483089 2.55371 0.461914L2.7168 0.458984Z" fill="white" stroke="#50458F" stroke-width="0.916397"/>
</svg>
